<svg xmlns="http://www.w3.org/2000/svg" xmlns:xlink="http://www.w3.org/1999/xlink" style="enable-background:new 0 0 500 500" viewBox="378.443 -49.174 248.673 217.679"><path d="M0 0h500v500H0z" style="fill:#fff" transform="translate(131.905 -56.943)"/><path d="M438.984 131.06v-4.637c-20.025-7.982-42.376-12.465-65.971-12.465-23.413 0-45.6 4.413-65.505 12.279v4.823h131.476z" style="fill:#42bf32" transform="translate(131.905 -56.943)"/><path d="M310.245 131.06c-3.224-8.031-4.856-16.527-4.856-25.31 0-37.545 30.545-68.09 68.09-68.09s68.09 30.545 68.09 68.09a67.662 67.662 0 0 1-4.88 25.31h6.953c2.925-8.095 4.411-16.59 4.411-25.31 0-41.121-33.454-74.575-74.574-74.575s-74.574 33.454-74.574 74.575a74.04 74.04 0 0 0 4.428 25.31h6.912z" style="fill:#1e4531" transform="translate(131.905 -56.943)"/><path d="M362.728 79.911c0-.001 0-.001 0 0l2.936-6.252a.928.928 0 0 1 .531-.483.938.938 0 0 1 1.164 1.279l-1.109 2.362 4.231 2.521-.954 1.603-4.074-2.429-1.031 2.195a.938.938 0 0 1-1.727-.081.92.92 0 0 1 .033-.715zm-13.308 3.531V72.881c0-.622.509-1.131 1.131-1.131s1.131.509 1.131 1.131V83.31h8.512c.59 0 1.073.483 1.073 1.072v.116c0 .59-.483 1.073-1.073 1.073h-2.325v5.264c-2.842-3.295-6.127-5.231-6.182-5.264h-1.78c-.59 0-1.072-.483-1.072-1.073v-.116a1.062 1.062 0 0 1 .585-.94z" style="fill:#1e4531" transform="translate(131.905 -56.943)"/><path d="M330.879 84.014a21.354 21.354 0 0 1 10.168-2.576c7.685 0 14.433 4.086 18.188 10.2h10.743v-8.349a1.974 1.974 0 0 1-1.766-1.952v-3.368c0-1.014.778-1.846 1.766-1.952v-.021h16.17v-3.827h-.399a.16.16 0 0 1-.139-.24l.538-.616v-.105h.092l.785-.899a.16.16 0 0 1 .278 0l.785.899h.091v.105l.538.616a.16.16 0 0 1-.139.24h-.399v3.827h2.139v-6.492c0-.376.308-.684.685-.684h.043v-5.446h1.154v5.446h.043c.376 0 .684.308.684.684v6.492h6.5c3.584 0 6.517 2.933 6.517 6.517v9.503a16.098 16.098 0 0 1 11.234 4.738 1.245 1.245 0 1 1-1.762 1.762 13.636 13.636 0 0 0-9.703-4.019c-6.806 0-12.648 5.074-13.589 11.802a1.247 1.247 0 0 1-1.406 1.062 1.196 1.196 0 0 1-.287-.08h-28.537c-.095.443-.201.883-.325 1.319a1.248 1.248 0 0 1-1.539.859 1.246 1.246 0 0 1-.859-1.539c.473-1.668.713-3.401.713-5.151 0-10.387-8.451-18.838-18.838-18.838-3.137 0-6.241.786-8.978 2.273a1.247 1.247 0 1 1-1.189-2.19z" style="fill:#1e4531" transform="translate(131.905 -56.943)"/><path d="M325.27 100.17h.505c.18-1.432.541-2.808 1.082-4.093l-.424-.245a.54.54 0 0 1-.197-.736l1.431-2.479a.54.54 0 0 1 .736-.197l.441.255a15.699 15.699 0 0 1 2.989-2.989l-.255-.441a.54.54 0 0 1 .197-.736l2.479-1.431a.54.54 0 0 1 .736.197l.245.424a15.603 15.603 0 0 1 4.093-1.082v-.507c0-.296.243-.539.539-.539h2.863a.54.54 0 0 1 .539.539v.505c1.432.18 2.808.542 4.093 1.082l.245-.424a.54.54 0 0 1 .736-.197l2.479 1.431a.54.54 0 0 1 .197.736l-.255.441a15.728 15.728 0 0 1 2.989 2.989l.441-.255a.54.54 0 0 1 .736.197l1.431 2.479a.54.54 0 0 1-.197.736l-.424.245c.54 1.285.901 2.661 1.082 4.093h.505c.296 0 .539.243.539.539v2.863a.54.54 0 0 1-.539.539h-.505a15.564 15.564 0 0 1-1.082 4.093l.424.245a.54.54 0 0 1 .197.736l-1.431 2.479a.54.54 0 0 1-.736.197l-.441-.255a15.699 15.699 0 0 1-2.989 2.989l.255.441a.54.54 0 0 1-.197.736l-2.479 1.431a.54.54 0 0 1-.736-.197l-.245-.424c-1.285.54-2.661.901-4.093 1.082v.505a.54.54 0 0 1-.539.539h-2.863a.541.541 0 0 1-.539-.539v-.505a15.563 15.563 0 0 1-4.093-1.081l-.245.424a.54.54 0 0 1-.736.197l-2.479-1.431a.54.54 0 0 1-.197-.736l.255-.441a15.728 15.728 0 0 1-2.989-2.989l-.441.255a.54.54 0 0 1-.736-.197l-1.431-2.479a.54.54 0 0 1 .197-.736l.424-.245a15.603 15.603 0 0 1-1.082-4.093h-.505a.541.541 0 0 1-.539-.539v-2.863a.54.54 0 0 1 .539-.538z" style="fill:#1e4531" transform="translate(131.905 -56.943)"/><path d="M334.855 102.14a6.445 6.445 0 1 0 12.89 0 6.445 6.445 0 0 0-12.89 0z" style="fill:#fcffd6" transform="translate(131.905 -56.943)"/><path d="M338.94 102.14a2.36 2.36 0 1 0 4.721-.001 2.36 2.36 0 0 0-4.721.001z" style="fill:#1e4531" transform="translate(131.905 -56.943)"/><path d="M394.609 105.523h.493c.11-.642.278-1.262.498-1.859l-.427-.246a.487.487 0 0 1-.178-.663l1.29-2.233a.488.488 0 0 1 .663-.178l.419.242c.412-.495.869-.952 1.364-1.364l-.242-.419a.486.486 0 0 1 .178-.663l2.233-1.289a.487.487 0 0 1 .663.178l.246.427c.597-.22 1.217-.388 1.859-.498v-.493c0-.267.219-.486.486-.486h2.579c.267 0 .486.219.486.486v.493c.642.109 1.262.277 1.859.498l.246-.427a.488.488 0 0 1 .663-.178l2.233 1.289a.488.488 0 0 1 .178.663l-.242.419c.495.412.952.869 1.364 1.364l.419-.242a.487.487 0 0 1 .663.178l1.29 2.233a.487.487 0 0 1-.178.663l-.427.246c.22.597.388 1.217.498 1.859h.493c.267 0 .486.218.486.486v2.579a.488.488 0 0 1-.486.486h-.493c-.11.642-.278 1.262-.498 1.859l.427.246a.487.487 0 0 1 .178.663l-1.29 2.234a.487.487 0 0 1-.663.178l-.419-.242c-.412.495-.869.952-1.364 1.364l.242.42a.486.486 0 0 1-.178.663l-2.233 1.289a.486.486 0 0 1-.663-.178l-.246-.426c-.597.22-1.217.388-1.859.498v.493a.488.488 0 0 1-.486.486h-2.579a.487.487 0 0 1-.486-.486v-.493a10.325 10.325 0 0 1-1.859-.498l-.246.426a.488.488 0 0 1-.663.178l-2.233-1.289a.487.487 0 0 1-.178-.663l.242-.42a10.589 10.589 0 0 1-1.364-1.364l-.419.242a.487.487 0 0 1-.663-.178l-1.29-2.234a.487.487 0 0 1 .178-.663l.427-.246a10.494 10.494 0 0 1-.498-1.859h-.493a.487.487 0 0 1-.486-.486v-2.579a.488.488 0 0 1 .486-.486z" style="overflow:visible;fill:#1e4531" transform="translate(131.905 -56.943)"/><path d="M401.122 107.298a4.322 4.322 0 1 0 8.644 0 4.322 4.322 0 0 0-8.644 0z" style="fill:#fcffd6" transform="translate(131.905 -56.943)"/><path d="M404.165 107.298a1.28 1.28 0 1 0 2.56 0 1.28 1.28 0 0 0-2.56 0z" style="fill:#1e4531" transform="translate(131.905 -56.943)"/><path d="M394.966 90.746a.818.818 0 0 0 .818-.818v-6.546a.818.818 0 1 0-1.636 0v6.546c0 .452.366.818.818.818zm-4.24 0a.818.818 0 0 0 .818-.818v-6.546a.818.818 0 1 0-1.636 0v6.546c0 .452.366.818.818.818zm-4.24 0a.818.818 0 0 0 .818-.818v-6.546a.818.818 0 1 0-1.636 0v6.546c0 .452.366.818.818.818zm-4.24 0a.818.818 0 0 0 .818-.818v-6.546a.818.818 0 1 0-1.636 0v6.546a.817.817 0 0 0 .818.818z" style="fill:#fcffd6" transform="translate(131.905 -56.943)"/><text style="fill:#1e4531;font-family:BebasNeue;font-size:46.0554px;white-space:pre" transform="translate(399.66 112.428)">ZohidFarm</text><path d="M451.553 190.671c-2.029 0-3.831.686-5.037 1.753h-6.018a8.343 8.343 0 0 0 2.891-1.904c1.779-1.779 2.585-4.063 2.282-5.93-1.867-.303-4.151.503-5.93 2.282-1.662 1.662-2.462 3.76-2.315 5.552h-8.894a8.343 8.343 0 0 0 2.891-1.904c1.779-1.779 2.585-4.063 2.282-5.93-1.867-.303-4.151.503-5.93 2.282-1.662 1.662-2.461 3.76-2.315 5.552h-6.966v1.795h6.97c-.165 1.802.634 3.922 2.311 5.598 1.779 1.779 4.063 2.585 5.93 2.282.303-1.867-.503-4.151-2.282-5.93-.916-.916-1.965-1.569-3.023-1.95h9.03c-.165 1.802.634 3.922 2.311 5.598 1.779 1.779 4.063 2.585 5.93 2.282.303-1.867-.503-4.151-2.282-5.93-.916-.916-1.965-1.569-3.023-1.95h6.308c1.203.987 2.939 1.611 4.878 1.611 2.516 0 4.701-1.045 5.807-2.58-1.105-1.534-3.29-2.579-5.806-2.579zm-132.37-3.799c-1.779-1.779-4.063-2.585-5.93-2.282-.303 1.867.503 4.151 2.282 5.93a8.343 8.343 0 0 0 2.891 1.904h-8.894c.147-1.792-.652-3.89-2.315-5.552-1.779-1.779-4.063-2.585-5.93-2.282-.303 1.867.503 4.151 2.282 5.93a8.343 8.343 0 0 0 2.891 1.904h-6.018c-1.206-1.067-3.008-1.753-5.036-1.753-2.516 0-4.701 1.045-5.807 2.58 1.106 1.534 3.29 2.58 5.807 2.58 1.939 0 3.675-.625 4.878-1.611h6.308a8.302 8.302 0 0 0-3.023 1.95c-1.779 1.779-2.585 4.063-2.282 5.93 1.867.303 4.151-.503 5.93-2.282 1.677-1.676 2.476-3.796 2.311-5.598h9.03a8.302 8.302 0 0 0-3.023 1.95c-1.779 1.779-2.585 4.063-2.282 5.93 1.867.303 4.151-.503 5.93-2.282 1.677-1.676 2.476-3.796 2.311-5.598h6.97v-1.795h-6.966c.147-1.792-.653-3.89-2.315-5.553z" style="fill:#428f32" transform="translate(131.905 -56.943)"/><path d="M407.25 204h-67.84c-6.869 0-12.437-5.568-12.437-12.437s5.568-12.437 12.437-12.437h67.84c6.869 0 12.437 5.568 12.437 12.437S414.119 204 407.25 204z" style="fill:#42bf32" transform="translate(131.905 -56.943)"/><text x="341.743" y="195.263" style="fill:#fff;font-family:ChunkFive-Roman;font-size:12.6px;white-space:pre" transform="translate(131.905 -56.943)">SINCE 2014</text><path d="M316.83 129.93a61.529 61.529 0 0 1-4.868-24.065c0-34.084 27.63-61.714 61.714-61.714s61.714 27.63 61.714 61.714a61.535 61.535 0 0 1-4.516 23.216" style="fill:none;stroke:#42bf32;stroke-width:2.0234;stroke-miterlimit:10" transform="translate(131.905 -56.943)"/><g transform="translate(131.905 -56.943)"><path id="a" d="M302.551 370.999c0 39.172 31.755 70.927 70.927 70.927 39.172 0 70.927-31.755 70.927-70.927" style="fill:none"/><text style="white-space:pre"><textPath xlink:href="#a" startOffset=".146%"><tspan style="fill:#fff;font-family:&quot;BebasNeue&quot;;font-size:18.9602px;letter-spacing:200">organic products</tspan></textPath></text></g><g transform="translate(131.905 -56.943)"><path id="b" d="M316.369 371.291c0-31.544 25.571-57.115 57.115-57.115 31.543 0 57.115 25.571 57.115 57.115" style="fill:none"/><text style="white-space:pre"><textPath xlink:href="#b" startOffset="0%"></textPath></text></g></svg>