<svg width="64" height="64" viewBox="0 0 64 64" xmlns="http://www.w3.org/2000/svg" xmlns:xlink="http://www.w3.org/1999/xlink"><title>check-2_color</title><defs><filter x="-50%" y="-50%" width="200%" height="200%" filterUnits="objectBoundingBox" id="a"><feOffset dy="1" in="SourceAlpha" result="shadowOffsetOuter1"/><feGaussianBlur stdDeviation=".5" in="shadowOffsetOuter1" result="shadowBlurOuter1"/><feColorMatrix values="0 0 0 0 0 0 0 0 0 0 0 0 0 0 0 0 0 0 0.4 0" in="shadowBlurOuter1" result="shadowMatrixOuter1"/><feMerge><feMergeNode in="shadowMatrixOuter1"/><feMergeNode in="SourceGraphic"/></feMerge></filter><linearGradient x1="50%" y1="2.083%" x2="50%" y2="100%" id="b"><stop stop-color="#ABD447" offset="0%"/><stop stop-color="#42B722" offset="100%"/></linearGradient><circle id="c" cx="21" cy="21" r="21"/><filter x="-50%" y="-50%" width="200%" height="200%" filterUnits="objectBoundingBox" id="d"><feOffset dy="1" in="SourceAlpha" result="shadowOffsetInner1"/><feComposite in="shadowOffsetInner1" in2="SourceAlpha" operator="arithmetic" k2="-1" k3="1" result="shadowInnerInner1"/><feColorMatrix values="0 0 0 0 1 0 0 0 0 1 0 0 0 0 1 0 0 0 0.2 0" in="shadowInnerInner1"/></filter><linearGradient x1="50%" y1="0%" x2="50%" y2="98.192%" id="e"><stop stop-color="#47B321" offset="0%"/><stop stop-color="#40872B" offset="100%"/></linearGradient><circle id="f" cx="21" cy="21" r="17"/><filter x="-50%" y="-50%" width="200%" height="200%" filterUnits="objectBoundingBox" id="g"><feOffset dy="1" in="SourceAlpha" result="shadowOffsetInner1"/><feComposite in="shadowOffsetInner1" in2="SourceAlpha" operator="arithmetic" k2="-1" k3="1" result="shadowInnerInner1"/><feColorMatrix values="0 0 0 0 0 0 0 0 0 0 0 0 0 0 0 0 0 0 0.196133379 0" in="shadowInnerInner1"/></filter><linearGradient x1="50%" y1="0%" x2="50%" y2="100%" id="h"><stop stop-color="#FCFCFC" offset="0%"/><stop stop-color="#E8E8E8" offset="100%"/></linearGradient></defs><g fill="none" fill-rule="evenodd"><path d="M7 7h50v50H7z"/><g filter="url(#a)" transform="translate(11 11)"><use fill="url(#b)" xlink:href="#c"/><use fill="#000" filter="url(#d)" xlink:href="#c"/><use fill="url(#e)" xlink:href="#f"/><use fill="#000" filter="url(#g)" xlink:href="#f"/><path d="M37.72 8.293L20.985 25.028l-5.657-5.657L12.5 22.2l8.485 8.486L39.88 11.79a21.004 21.004 0 0 0-2.159-3.498z" fill="#000" opacity=".2"/><path fill="url(#h)" d="M20.985 24.028l-5.657-5.657L12.5 21.2l8.485 8.486L42.542 8.128 39.713 5.3z"/></g></g></svg>
